<?xml version="1.0" standalone="no"?>
<!DOCTYPE svg PUBLIC "-//W3C//DTD SVG 20010904//EN"
 "http://www.w3.org/TR/2001/REC-SVG-20010904/DTD/svg10.dtd">
<svg version="1.0" xmlns="http://www.w3.org/2000/svg"
 width="1000.000000pt" height="1000.000000pt" viewBox="0 0 1000.000000 1000.000000"
 preserveAspectRatio="xMidYMid meet">
<metadata>
Created by potrace 1.11, written by Peter Selinger 2001-2013
</metadata>
<g transform="translate(0.000000,1000.000000) scale(0.100000,-0.100000)"
fill="#000000" stroke="none">
<path d="M160 9982 c0 -23 -47 -164 -58 -171 -4 -4 -13 -18 -19 -33 -9 -19
-22 -29 -48 -34 l-35 -6 0 -309 c0 -170 3 -309 8 -309 33 2 136 140 147 197 6
36 39 83 57 83 4 0 8 -13 8 -28 0 -16 7 -37 15 -48 16 -21 20 -75 6 -102 -4
-9 -18 -37 -30 -62 -49 -100 -75 -130 -117 -130 -13 0 -39 -8 -58 -17 l-36
-18 0 -632 c0 -620 0 -633 20 -653 25 -25 25 -45 0 -70 -20 -20 -20 -33 -20
-660 0 -352 2 -640 4 -640 3 0 26 11 52 25 71 38 78 35 71 -27 -7 -58 -37 -98
-74 -98 -18 0 -23 5 -23 25 0 16 -6 25 -15 25 -13 0 -15 -115 -15 -975 l0
-975 60 0 60 0 29 -48 c53 -85 53 -85 145 -78 100 8 125 -3 109 -51 -6 -17
-22 -48 -36 -70 -35 -55 -67 -60 -133 -22 -75 42 -155 35 -189 -17 -8 -13 -22
-24 -30 -24 -13 0 -15 -29 -14 -187 l0 -188 27 -21 c53 -41 66 -40 113 16 29
34 50 50 66 50 31 0 40 -26 19 -59 -23 -35 -40 -75 -61 -141 -22 -65 -55 -100
-95 -100 -42 0 -44 -13 -14 -71 41 -78 59 -285 29 -319 -8 -9 -15 -24 -15 -34
0 -24 -43 -96 -57 -96 -10 0 -13 -31 -13 -123 0 -118 1 -124 23 -134 64 -31
86 -14 88 68 1 72 11 103 34 108 23 4 45 -24 45 -60 0 -26 -28 -104 -30 -84
-1 6 -5 1 -10 -10 -14 -33 0 -65 51 -114 65 -63 70 -90 28 -138 -44 -51 -75
-71 -104 -65 -15 2 -36 -5 -57 -20 -18 -14 -41 -28 -51 -31 -13 -5 -17 -18
-17 -61 l0 -54 54 -6 c70 -9 90 2 103 56 14 53 37 115 46 125 4 4 31 -5 60
-19 29 -14 73 -33 99 -43 38 -13 49 -22 58 -50 9 -28 8 -42 -10 -87 -43 -105
-39 -101 -90 -92 -25 4 -67 8 -95 9 -27 1 -60 7 -73 13 -14 8 -22 9 -22 2 0
-5 -12 -10 -26 -10 -15 0 -44 -5 -65 -12 l-39 -11 0 -393 c0 -379 1 -394 19
-404 30 -15 45 -12 56 12 6 12 16 24 24 26 11 4 13 -4 6 -44 -4 -27 -8 -58 -9
-69 -8 -69 -50 -130 -82 -118 -11 4 -14 -14 -14 -94 0 -88 2 -99 21 -111 33
-21 80 -150 114 -317 7 -33 16 -68 20 -78 11 -27 -13 -65 -47 -72 -23 -6 -34
-1 -57 24 -16 17 -34 31 -40 31 -8 0 -11 -65 -11 -215 l0 -215 618 0 617 1 29
29 c16 17 35 30 42 30 7 0 26 12 43 26 25 21 34 24 46 14 12 -10 12 -17 -1
-52 -8 -22 -14 -42 -14 -43 0 -2 353 -4 786 -4 l785 -2 -6 33 c-12 61 44 106
96 78 22 -12 49 -61 49 -90 0 -20 5 -20 263 -20 l263 0 0 51 c-1 44 3 54 27
75 37 32 87 32 123 0 24 -20 28 -31 27 -75 l-1 -51 788 0 c774 0 787 0 805 20
25 27 93 27 123 0 20 -19 35 -20 287 -20 l265 0 10 24 c12 33 48 56 86 56 35
0 80 -30 89 -60 6 -19 16 -20 146 -20 l139 0 0 25 c0 38 42 75 84 75 44 0 87
-35 89 -73 l2 -27 1427 0 1427 0 3 38 c3 38 -9 82 -26 94 -5 3 -20 1 -32 -4
-18 -8 -34 -7 -66 5 -71 26 -131 31 -166 13 -41 -21 -64 -20 -96 5 -20 15 -26
30 -26 57 0 20 -6 48 -13 62 -11 21 -18 24 -52 22 -22 -2 -53 -10 -70 -17 -17
-8 -70 -13 -124 -14 -96 -1 -153 -12 -182 -37 -13 -12 -14 -26 -7 -86 6 -47 5
-81 -1 -95 l-10 -23 -48 21 c-64 27 -163 88 -163 100 0 20 32 57 54 63 30 7
206 180 240 234 4 7 2 19 -4 27 -17 20 1 41 40 49 24 4 32 12 36 35 11 53 71
89 120 71 13 -5 33 -29 45 -52 12 -24 28 -47 36 -51 12 -8 11 -13 -7 -32 -26
-28 -20 -44 14 -38 20 4 27 -2 49 -49 32 -68 51 -85 72 -68 8 7 15 22 15 34 0
67 74 176 119 176 12 0 39 -20 63 -46 36 -39 133 -98 164 -99 15 0 44 -31 44
-47 0 -7 -9 -21 -20 -31 -24 -20 -28 -85 -6 -93 27 -10 65 28 66 64 0 33 8 38
38 23 9 -5 42 -16 73 -26 55 -17 58 -17 82 1 14 11 31 29 38 41 14 26 57 43
110 43 l39 0 0 145 c0 90 -4 145 -10 145 -5 0 -10 -4 -10 -9 0 -18 -45 -20
-74 -2 -22 12 -51 17 -96 17 -58 -1 -66 -3 -77 -26 -14 -28 -3 -47 30 -52 25
-4 37 -38 13 -38 -9 0 -16 -4 -16 -9 0 -11 -55 -31 -87 -31 -13 0 -26 6 -29
13 -3 9 -23 13 -58 13 -37 0 -64 7 -90 22 -20 12 -46 22 -56 22 -10 0 -22 5
-25 10 -3 6 -24 10 -45 10 -21 0 -42 -4 -45 -10 -12 -19 -24 -10 -34 27 -14
48 -14 53 2 53 22 1 57 38 69 72 18 53 37 76 63 75 14 0 33 11 43 23 27 34 77
20 97 -27 15 -37 37 -37 34 0 -2 38 0 43 34 55 51 18 87 16 87 -7 0 -20 18
-31 51 -31 10 0 25 -12 33 -29 27 -51 92 -78 160 -65 l36 6 0 763 0 763 -24 6
c-13 3 -34 22 -46 41 -12 19 -30 40 -40 45 -24 13 -72 13 -106 0 -60 -23 -76
52 -30 141 32 61 41 69 76 69 14 0 49 11 78 25 30 14 63 25 73 25 18 0 19 16
19 538 l0 538 -52 13 c-29 7 -72 24 -95 37 -23 13 -51 24 -63 24 -34 0 -60 19
-60 43 0 40 17 47 95 40 69 -5 72 -5 107 26 20 17 43 31 52 31 14 0 16 41 16
435 0 428 0 435 -20 435 -11 0 -20 -4 -20 -10 0 -9 -137 -110 -149 -110 -7 0
-78 108 -101 153 -13 26 -16 27 -89 27 -81 -1 -121 -19 -121 -55 0 -25 -38
-73 -70 -90 -41 -21 -66 -19 -103 9 -42 32 -79 41 -117 27 -43 -15 -85 -4 -99
26 -15 32 -1 58 39 71 26 9 34 8 59 -14 34 -29 64 -31 89 -6 10 10 27 25 38
33 29 20 84 99 84 119 0 10 9 29 21 44 16 20 29 26 61 26 38 0 98 26 98 42 0
4 14 15 30 23 27 14 31 14 36 0 3 -8 10 -12 15 -9 5 3 9 4 9 2 0 -2 4 -29 10
-62 12 -75 32 -106 68 -106 16 0 51 -6 78 -14 74 -21 138 -30 130 -18 -3 6 1
17 9 25 20 21 21 137 1 137 -18 0 -119 117 -135 158 -11 26 -11 35 -1 47 21
25 100 55 126 49 l24 -6 0 316 0 317 -40 -5 c-58 -6 -80 2 -80 30 0 19 5 24
26 24 16 0 38 13 60 36 l34 37 0 1078 0 1078 -37 6 c-107 19 -126 29 -138 75
-5 20 1 32 28 58 28 27 45 34 91 39 l56 6 0 173 c0 129 -3 173 -12 177 -10 3
-10 9 0 26 9 16 12 160 12 626 l0 605 -1710 0 c-1337 0 -1715 -3 -1736 -12
-22 -10 -28 -10 -32 0 -3 9 -144 12 -645 12 l-642 0 -23 -143 c-35 -208 -70
-277 -143 -277 -63 0 -147 -68 -136 -110 3 -11 2 -19 -2 -18 -19 2 -21 -4 -8
-23 13 -17 13 -25 2 -47 -8 -14 -12 -29 -9 -34 8 -13 -21 -9 -34 4 -18 18 -14
32 4 17 15 -12 16 -10 9 21 -9 43 -8 43 -40 43 -15 0 -29 6 -32 13 -6 15 33
69 50 69 23 0 18 57 -12 136 -33 87 -39 147 -21 238 5 29 16 62 24 73 15 20
16 20 67 -31 29 -28 59 -51 66 -51 13 0 34 42 47 93 l6 27 -195 0 -195 0 0
-23 c0 -12 -7 -32 -15 -44 -8 -11 -16 -35 -17 -53 -2 -27 3 -37 27 -54 80 -57
95 -104 58 -181 -14 -29 -25 -38 -61 -47 -31 -7 -40 -14 -33 -21 15 -15 14
-37 -2 -37 -8 0 -19 11 -25 25 -12 27 -40 32 -72 15 -11 -6 -17 -17 -14 -25 4
-10 0 -15 -15 -15 -12 0 -21 -4 -21 -9 0 -5 -6 -12 -12 -14 -7 -2 -1 -3 14 -1
15 2 30 -1 33 -6 6 -9 -16 -15 -39 -11 -4 1 -15 -4 -23 -10 -11 -10 -15 -8
-19 8 -6 21 -42 43 -69 43 -24 0 -17 18 8 22 28 4 25 29 -8 72 -14 18 -27 53
-31 83 -6 52 -6 54 33 92 25 24 61 45 94 55 48 15 58 24 86 71 18 29 33 56 33
59 0 3 -135 6 -300 6 -165 0 -300 -4 -300 -9 0 -5 7 -28 15 -51 17 -49 20
-106 5 -115 -52 -32 -97 98 -57 163 7 10 -68 12 -374 10 l-382 -3 -18 -35
c-10 -19 -24 -73 -31 -119 -11 -72 -17 -87 -40 -104 -30 -23 -84 -25 -104 -5
-8 7 -17 45 -22 83 -8 67 -9 69 -21 41 -6 -17 -21 -36 -31 -43 -11 -8 -20 -25
-20 -39 0 -14 -4 -23 -10 -19 -6 4 -13 -7 -16 -24 -5 -21 -12 -31 -25 -31 -11
0 -19 -7 -19 -15 0 -8 7 -15 15 -15 8 0 15 -4 15 -10 0 -5 -7 -7 -15 -4 -8 4
-15 4 -15 0 0 -8 83 -45 159 -70 53 -19 67 -28 87 -62 50 -83 51 -84 24 -106
-22 -18 -34 -19 -159 -13 -143 7 -212 22 -271 61 -45 29 -187 78 -287 99 -99
22 -91 21 -140 11 -36 -7 -50 -4 -100 22 -86 45 -121 59 -198 83 -38 11 -93
33 -121 49 -28 16 -70 30 -93 31 -37 3 -45 0 -68 -30 l-26 -33 5 -168 c4 -116
2 -174 -6 -188 -6 -10 -23 -38 -38 -60 -18 -26 -28 -55 -28 -77 0 -35 -23 -94
-38 -96 -48 -8 -57 -3 -84 46 -15 28 -27 67 -27 88 -1 21 -6 37 -13 37 -6 0
-59 -24 -117 -54 -151 -77 -261 -87 -261 -25 0 13 13 25 42 36 23 9 70 31 103
48 71 37 120 52 197 60 49 5 57 9 66 33 36 95 52 233 52 456 l0 166 -489 0
c-377 0 -490 -3 -494 -13 -2 -6 -2 -50 1 -97 3 -64 0 -95 -12 -123 -16 -40
-11 -63 21 -95 18 -18 17 -57 -2 -72 -13 -10 -19 -10 -34 4 -15 14 -20 14 -29
3 -7 -8 -31 -19 -54 -26 -24 -7 -51 -17 -60 -22 -10 -5 -25 -9 -33 -9 -9 0
-24 -20 -36 -47 -26 -61 -46 -83 -75 -83 -30 0 -40 36 -25 83 8 25 23 39 56
55 25 12 45 28 45 36 0 33 22 64 47 64 38 0 50 18 28 42 -16 18 -17 23 -5 45
10 19 11 30 2 50 -15 33 -15 68 -1 82 8 8 0 21 -30 48 -22 20 -43 45 -46 56
-9 27 -95 28 -95 1z m1063 -140 c26 -24 28 -32 24 -75 -5 -55 -37 -97 -75 -97
-14 0 -42 -5 -62 -11 -47 -14 -79 -7 -119 27 -33 28 -39 59 -19 97 14 28 40
47 103 74 62 26 109 22 148 -15z m6042 -21 c3 -5 1 -12 -5 -16 -5 -3 -10 1
-10 9 0 18 6 21 15 7z m138 -60 c50 -28 97 -63 97 -72 0 -4 -24 -16 -52 -28
-46 -18 -57 -19 -88 -8 -54 19 -57 23 -64 78 -10 75 15 82 107 30z m-3425
-158 c2 -23 -5 -40 -28 -67 -19 -21 -30 -42 -26 -51 3 -8 1 -15 -5 -15 -27 0
5 -18 43 -24 40 -7 42 -8 24 -22 -11 -8 -14 -14 -7 -14 7 0 9 -4 6 -10 -10
-16 -25 -12 -25 8 0 12 -2 14 -8 4 -5 -7 -16 -10 -25 -6 -9 3 -14 10 -11 15 3
5 -3 6 -12 2 -12 -4 -15 -3 -10 5 5 9 0 9 -19 2 -33 -12 -45 -13 -25 0 11 7 4
11 -28 16 -43 7 -59 24 -22 24 16 0 20 7 20 30 0 23 13 43 56 85 65 65 97 71
102 18z m4806 -9 c18 -17 21 -51 6 -74 -7 -12 -12 -12 -28 4 -22 19 -36 61
-27 76 9 15 32 12 49 -6z m-4474 -44 c0 -5 -4 -10 -10 -10 -5 0 -10 5 -10 10
0 6 5 10 10 10 6 0 10 -4 10 -10z m60 -40 c0 -5 -9 -10 -19 -10 -11 0 -23 5
-26 10 -4 6 5 10 19 10 14 0 26 -4 26 -10z m-981 -35 c35 -32 44 -35 97 -35
103 0 105 -30 3 -46 -54 -8 -80 -21 -77 -37 12 -64 -73 -90 -165 -49 -66 29
-100 58 -113 95 -11 32 -11 32 41 53 28 12 72 24 98 28 26 4 49 11 52 17 10
16 24 10 64 -26z m1238 -1 c10 -28 -12 -38 -59 -27 l-43 11 50 2 c38 2 43 4
20 8 -26 4 -28 5 -10 12 29 12 35 12 42 -6z m-321 -15 c4 -8 0 -9 -15 -4 -12
4 -21 2 -21 -4 0 -6 7 -11 16 -11 14 0 14 -2 0 -15 -8 -8 -16 -15 -18 -15 -3
0 -3 51 1 58 3 7 31 0 37 -9z m359 -9 c3 -5 1 -10 -4 -10 -6 0 -11 5 -11 10 0
6 2 10 4 10 3 0 8 -4 11 -10z m-255 -10 c12 -8 9 -10 -13 -10 -16 0 -26 4 -22
10 8 12 16 12 35 0z m-594 -22 c-10 -6 -20 -7 -24 -3 -9 8 20 25 31 18 5 -3 2
-10 -7 -15z m654 12 c8 -5 12 -12 9 -15 -8 -8 -39 5 -39 16 0 11 11 11 30 -1z
m-287 -7 c-7 -2 -21 -2 -30 0 -10 3 -4 5 12 5 17 0 24 -2 18 -5z m158 -10 c13
-17 13 -17 -6 -3 -11 8 -22 16 -24 17 -2 2 0 3 6 3 6 0 17 -8 24 -17z m477 -1
c2 -7 -2 -10 -12 -6 -9 3 -16 11 -16 16 0 13 23 5 28 -10z m-1041 2 c-3 -3
-12 -4 -19 -1 -8 3 -5 6 6 6 11 1 17 -2 13 -5z m1088 -4 c-3 -5 -12 -10 -18
-10 -7 0 -6 4 3 10 19 12 23 12 15 0z m-1161 -9 c3 -5 -1 -11 -9 -14 -9 -4
-12 -1 -8 9 6 16 10 17 17 5z m432 -6 c8 -3 12 -10 9 -16 -5 -8 -10 -8 -18 0
-6 6 -19 11 -30 11 -10 0 -16 4 -12 10 3 5 12 7 20 5 8 -3 22 -7 31 -10z m634
-18 c0 -5 -4 -5 -10 -2 -5 3 -10 14 -10 23 0 15 2 15 10 2 5 -8 10 -19 10 -23z
m-541 -13 c5 4 12 2 16 -4 3 -5 0 -10 -8 -10 -22 0 -77 21 -77 29 0 19 16 19
36 0 12 -12 27 -18 33 -15z m-3532 -19 c52 -55 57 -73 50 -188 -5 -104 -9
-117 -38 -135 -18 -11 -23 -11 -34 5 -13 17 -14 17 -20 1 -4 -10 -12 -18 -17
-18 -5 0 -22 -8 -36 -19 -32 -22 -83 -18 -99 8 -6 9 -14 31 -17 48 -9 38 20
73 59 73 45 0 105 30 111 57 4 14 -3 64 -15 112 -11 48 -21 90 -21 94 0 21 39
1 77 -38z m4123 29 c0 -8 -4 -12 -10 -9 -5 3 -10 10 -10 16 0 5 5 9 10 9 6 0
10 -7 10 -16z m35 6 c3 -5 -1 -10 -9 -10 -9 0 -16 5 -16 10 0 6 4 10 9 10 6 0
13 -4 16 -10z m223 -50 c7 0 12 -4 12 -10 0 -13 -23 -13 -54 2 -20 9 -23 14
-14 25 9 11 14 11 28 -2 9 -8 22 -15 28 -15z m-1271 14 c-3 -3 -12 -4 -19 -1
-8 3 -5 6 6 6 11 1 17 -2 13 -5z m-113 -39 c-8 -19 -23 -19 -48 0 -19 14 -18
15 17 15 28 0 35 -3 31 -15z m-54 -40 c0 -5 -14 -10 -30 -11 -30 -1 -41 10
-17 19 20 8 47 3 47 -8z m52 3 c-9 -9 -15 -9 -24 0 -9 9 -7 12 12 12 19 0 21
-3 12 -12z m348 8 c0 -3 -4 -8 -10 -11 -5 -3 -10 -1 -10 4 0 6 5 11 10 11 6 0
10 -2 10 -4z m50 -6 c0 -13 -11 -13 -30 0 -12 8 -11 10 8 10 12 0 22 -4 22
-10z m105 0 c4 -6 -11 -10 -37 -9 -36 1 -39 2 -18 9 36 11 48 11 55 0z m-685
-30 c-13 -11 -25 -18 -28 -16 -7 8 22 35 37 36 9 0 5 -7 -9 -20z m650 -42 c0
-3 -9 -4 -20 -1 -11 3 -17 9 -14 14 3 5 1 9 -5 9 -6 0 -8 7 -4 16 5 14 9 13
24 -7 10 -13 19 -27 19 -31z m744 34 c3 -5 -1 -9 -9 -9 -8 0 -15 4 -15 9 0 4
4 8 9 8 6 0 12 -4 15 -8z m-654 -12 c11 -7 7 -10 -17 -10 -18 0 -33 5 -33 10
0 13 30 13 50 0z m-493 -16 c-3 -3 -12 -4 -19 -1 -8 3 -5 6 6 6 11 1 17 -2 13
-5z m71 -11 c-3 -19 -48 -32 -48 -14 0 6 7 11 15 11 8 0 15 5 15 10 0 6 5 10
11 10 6 0 9 -8 7 -17z m382 1 c0 -2 -7 -4 -15 -4 -8 0 -15 4 -15 10 0 5 7 7
15 4 8 -4 15 -8 15 -10z m-477 -21 c-7 -2 -21 -2 -30 0 -10 3 -4 5 12 5 17 0
24 -2 18 -5z m5349 -52 c-3 -20 -8 -28 -18 -24 -15 6 -17 13 -8 37 11 28 31
18 26 -13z m-5247 9 c-18 -8 -17 -9 8 -9 15 -1 27 -5 27 -11 0 -5 7 -7 15 -4
8 3 13 11 12 17 -1 7 4 12 11 12 6 0 12 -4 13 -10 0 -5 14 -19 31 -29 38 -25
20 -33 -24 -12 -28 14 -33 14 -48 1 -21 -19 -34 -19 -27 -1 9 23 -107 30 -176
11 -17 -4 -33 -3 -39 3 -7 7 0 13 26 18 20 3 39 4 42 1 3 -2 26 1 52 8 26 7
58 13 72 13 23 1 23 0 5 -8z m-365 -28 c0 -10 -50 -35 -57 -28 -3 2 8 11 24
20 34 18 33 18 33 8z m520 -52 c0 -5 -4 -10 -10 -10 -5 0 -10 5 -10 10 0 6 5
10 10 10 6 0 10 -4 10 -10z m74 1 c3 -5 -8 -11 -24 -13 -35 -5 -41 8 -7 15 12
2 23 5 24 6 1 0 4 -3 7 -8z m1551 -15 c0 -30 -31 -44 -51 -24 -15 14 -15 20
-4 33 18 21 55 15 55 -9z m-1909 -6 c13 0 24 -5 24 -10 0 -6 -12 -10 -27 -10
-16 0 -47 -2 -70 -4 -24 -2 -43 0 -43 5 0 11 60 29 78 23 8 -2 25 -4 38 -4z
m-352 -12 c-3 -5 -15 -8 -27 -6 -18 2 -22 -2 -22 -22 0 -18 -6 -26 -22 -28
-18 -3 -23 2 -23 17 0 12 6 21 13 21 8 0 8 3 -2 9 -11 7 -7 10 15 13 59 6 74
6 68 -4z m-2674 -48 c12 -7 11 -16 -8 -62 -12 -29 -22 -67 -22 -83 -1 -32 -24
-67 -52 -78 -16 -6 -17 1 -11 76 5 72 10 86 37 119 34 41 35 42 56 28z m835
-34 c19 -44 4 -66 -45 -66 -51 0 -65 23 -43 67 14 29 45 45 66 35 5 -3 15 -18
22 -36z m1595 14 c-24 -15 -37 -11 -16 5 11 8 22 12 25 9 3 -3 -1 -9 -9 -14z
m658 4 c-11 -11 -23 -14 -35 -9 -16 7 -15 9 7 15 40 12 45 11 28 -6z m-32 -24
c8 0 14 -9 14 -20 0 -11 -5 -20 -11 -20 -5 0 -8 -4 -5 -9 3 -4 -6 -6 -19 -3
-14 2 -25 8 -25 13 0 5 -9 9 -20 9 -11 0 -20 4 -20 10 0 5 15 7 33 5 17 -3 26
-3 20 1 -19 8 -16 27 3 20 9 -3 22 -6 30 -6z m124 -9 c0 -27 17 -35 29 -14 5
10 13 15 17 11 4 -4 2 -14 -4 -21 -7 -8 -8 -17 -4 -21 12 -13 -67 1 -83 14
-13 11 -14 10 -9 -6 5 -15 2 -14 -18 6 -30 30 -27 43 8 30 35 -14 44 -12 38 5
-4 9 0 15 10 15 9 0 16 -8 16 -19z m-3506 -4 c26 -19 33 -99 12 -131 -15 -24
-69 -46 -113 -46 -28 0 -38 44 -26 115 6 38 14 52 33 62 32 16 72 16 94 0z
m2965 -33 c-10 -12 -14 -12 -20 -2 -4 7 -3 16 4 20 18 11 29 -2 16 -18z m2384
-62 c-15 -11 -20 -10 -31 5 -7 10 -19 25 -26 34 -10 12 -11 20 -3 28 8 8 20 2
44 -21 31 -30 33 -34 16 -46z m-2488 46 c-6 -19 -5 -21 6 -10 22 21 30 13 13
-13 -16 -24 -16 -25 2 -18 17 6 17 5 5 -10 -17 -21 -31 -22 -31 -1 0 14 -2 15
-17 3 -15 -12 -16 -12 -11 8 4 15 1 23 -11 25 -12 3 -8 8 14 21 38 21 38 21
30 -5z m145 18 c0 -2 -8 -10 -17 -17 -16 -13 -17 -12 -4 4 13 16 21 21 21 13z
m255 -15 c15 -6 11 -9 -20 -14 -23 -4 -44 -2 -50 4 -7 7 -5 8 8 4 10 -4 17 -2
17 4 0 12 16 13 45 2z m121 -29 c-4 -3 -14 2 -24 12 -16 18 -16 18 6 6 13 -6
21 -14 18 -18z m2283 -26 c17 -31 4 -57 -16 -31 -14 21 -18 55 -5 55 5 0 14
-11 21 -24z m-2739 4 c0 -5 -4 -10 -10 -10 -5 0 -10 5 -10 10 0 6 5 10 10 10
6 0 10 -4 10 -10z m381 0 c20 -11 27 -40 9 -40 -5 0 -10 8 -10 18 -1 16 -1 16
-11 0 -5 -10 -15 -18 -20 -18 -6 0 -17 -7 -26 -16 -11 -11 -19 -12 -26 -5 -6
6 -21 11 -33 11 -30 0 -55 10 -49 20 3 5 15 6 27 2 14 -3 19 -2 14 6 -5 8 4
12 26 13 18 0 42 4 53 9 26 11 24 11 46 0z m-411 -24 c0 -2 -12 -12 -27 -21
l-28 -18 19 21 c17 20 36 29 36 18z m-956 -28 c23 -32 19 -58 -14 -98 l-30
-34 -15 21 c-9 13 -22 20 -30 17 -22 -9 -19 45 3 72 17 20 50 43 64 44 4 0 14
-10 22 -22z m-1229 -27 c8 -16 17 -57 20 -92 5 -54 3 -68 -13 -88 l-19 -24
-42 42 c-22 22 -48 41 -57 41 -13 0 -14 9 -8 58 7 65 20 85 45 79 10 -3 23 1
30 9 14 17 25 11 44 -25z m2077 17 c-7 -7 -12 -8 -12 -2 0 14 12 26 19 19 2
-3 -1 -11 -7 -17z m-90 -10 c-7 -7 -12 -8 -12 -2 0 14 12 26 19 19 2 -3 -1
-11 -7 -17z m2591 -22 c3 -8 -1 -17 -9 -20 -8 -3 -14 -14 -14 -24 0 -22 -22
-72 -32 -72 -11 0 -10 68 1 72 5 2 11 12 13 23 5 33 32 46 41 21z m-2203 -36
c-20 -13 -33 -13 -25 0 3 6 14 10 23 10 15 0 15 -2 2 -10z m11 -44 c-18 -22 8
-34 68 -30 29 2 61 -1 70 -6 16 -9 -10 -14 -81 -13 -17 1 -25 -4 -22 -12 3 -7
-5 -15 -18 -19 -27 -7 -79 -7 -60 1 6 2 9 9 6 15 -4 6 1 8 15 3 36 -11 46 7
12 21 -17 7 -31 18 -31 24 0 6 5 8 10 5 6 -3 10 1 10 9 0 9 7 16 16 16 13 0
14 -3 5 -14z m1859 10 c0 -3 -4 -8 -10 -11 -5 -3 -10 -1 -10 4 0 6 5 11 10 11
6 0 10 -2 10 -4z m457 -68 c-3 -8 -6 -5 -6 6 -1 11 2 17 5 13 3 -3 4 -12 1
-19z m-27 8 c0 -3 -4 -8 -10 -11 -5 -3 -10 -1 -10 4 0 6 5 11 10 11 6 0 10 -2
10 -4z m-443 -32 c-3 -3 -12 -4 -19 -1 -8 3 -5 6 6 6 11 1 17 -2 13 -5z m538
-14 c3 -5 2 -10 -4 -10 -5 0 -13 5 -16 10 -3 6 -2 10 4 10 5 0 13 -4 16 -10z
m-2355 -26 c43 -15 41 -16 -38 -19 -49 -2 -62 1 -58 11 3 8 0 14 -7 15 -7 0
-3 4 8 9 21 9 35 6 95 -16z m-1662 4 c7 -7 12 -39 12 -73 0 -103 -41 -128
-102 -62 -38 40 -36 76 4 116 33 32 65 40 86 19z m1252 2 c0 -5 -4 -10 -10
-10 -5 0 -10 5 -10 10 0 6 5 10 10 10 6 0 10 -4 10 -10z m-304 -66 c-10 -14
-20 -23 -23 -21 -2 3 3 17 13 31 9 15 19 24 22 22 2 -3 -3 -17 -12 -32z m564
26 c0 -7 7 -7 20 0 14 7 26 8 38 1 9 -6 13 -11 7 -11 -5 0 -3 -5 5 -11 12 -8
8 -9 -15 -7 -17 1 -36 -1 -43 -5 -6 -5 -12 -4 -12 1 0 5 -9 12 -20 15 -11 3
-20 10 -20 16 0 6 9 11 20 11 11 0 20 -5 20 -10z m-1832 -62 c-2 -24 -10 -36
-31 -46 -22 -11 -26 -18 -21 -39 4 -16 2 -28 -7 -34 -21 -12 -29 9 -29 78 0
66 3 69 63 72 26 1 28 -2 25 -31z m1772 -52 c0 -2 -7 -7 -16 -10 -8 -3 -12 -2
-9 4 6 10 25 14 25 6z m1480 -38 c0 -8 3 -9 8 -3 10 14 46 19 37 6 -3 -7 0 -8
9 -5 9 3 16 2 16 -2 0 -5 24 -10 53 -11 66 -3 76 -3 107 -9 30 -5 80 -46 80
-64 0 -7 8 -10 19 -7 13 3 28 -4 43 -21 13 -14 16 -22 8 -18 -8 4 -5 -1 8 -12
12 -11 22 -25 22 -30 0 -5 6 -15 14 -22 8 -6 13 -17 10 -25 -3 -7 3 -16 15
-20 23 -7 27 -25 11 -41 -8 -8 -6 -15 5 -24 8 -7 15 -21 15 -31 0 -10 5 -21
10 -24 6 -4 8 -11 5 -16 -4 -5 5 -20 19 -33 14 -13 26 -30 26 -38 0 -8 6 -20
13 -27 10 -11 9 -13 -5 -8 -10 4 -18 2 -18 -3 0 -6 4 -10 10 -10 5 0 14 -10
21 -21 8 -17 8 -27 -2 -46 -11 -20 -11 -26 1 -34 10 -6 11 -12 5 -16 -6 -5 -9
-19 -7 -33 1 -14 2 -36 2 -50 0 -16 10 -34 27 -48 20 -16 23 -21 8 -15 -16 5
-18 4 -9 -8 7 -8 14 -34 17 -59 6 -53 10 -71 20 -87 4 -6 10 -35 13 -65 3 -29
10 -58 16 -65 5 -7 7 -21 3 -33 -4 -11 -2 -20 4 -20 6 0 11 -6 11 -14 0 -15
48 -108 60 -116 12 -8 71 -136 73 -158 0 -11 4 -19 8 -16 4 2 10 -7 13 -20 7
-30 39 -82 84 -137 17 -23 32 -47 32 -55 0 -7 11 -38 25 -69 14 -31 26 -68 26
-83 -1 -150 -11 -306 -22 -312 -6 -4 -8 -13 -5 -19 4 -6 3 -11 -3 -11 -18 0
-40 -55 -39 -98 0 -23 -6 -47 -13 -55 -8 -7 -25 -30 -39 -50 -14 -20 -33 -40
-42 -43 -10 -3 -18 -10 -18 -15 0 -5 -8 -13 -17 -16 -31 -11 -60 -38 -55 -51
2 -7 0 -12 -5 -10 -15 4 -83 -13 -83 -21 0 -8 -96 -6 -167 5 -24 3 -43 9 -43
13 0 4 -6 8 -12 8 -7 0 -49 17 -93 38 -44 21 -87 38 -95 38 -8 0 -20 4 -27 9
-14 12 -137 38 -175 38 -18 0 -28 -5 -28 -14 0 -8 -5 -16 -11 -18 -5 -2 -7
-11 -4 -20 5 -12 15 -15 40 -11 30 5 36 1 64 -37 17 -23 33 -50 36 -60 3 -10
18 -20 33 -23 37 -8 121 -78 122 -101 0 -11 5 -16 14 -13 18 7 41 -19 50 -55
3 -16 11 -28 16 -28 16 0 11 -37 -5 -44 -19 -7 -19 -33 0 -52 12 -12 13 -20 3
-37 -14 -27 -38 -46 -57 -47 -8 0 -23 -8 -33 -17 -28 -25 -42 -3 -61 94 -9 45
-28 121 -43 168 l-27 86 -28 -32 c-24 -27 -35 -32 -70 -31 -48 2 -118 -35
-150 -79 -11 -16 -26 -29 -34 -29 -7 0 -15 -6 -18 -13 -3 -7 -24 -19 -48 -26
-24 -7 -65 -20 -90 -29 -44 -14 -52 -14 -140 8 -84 20 -224 28 -238 14 -2 -2
3 -12 11 -21 8 -10 23 -58 32 -108 10 -53 29 -112 47 -144 16 -30 29 -60 29
-67 0 -7 -26 -17 -62 -23 l-63 -11 -36 40 c-39 44 -59 51 -59 21 0 -11 -10
-27 -22 -35 -15 -11 -18 -16 -8 -17 10 0 8 -3 -4 -8 -14 -5 -20 -18 -20 -47
-1 -34 3 -41 29 -52 18 -8 44 -10 67 -7 35 6 42 3 84 -38 42 -42 51 -46 112
-53 81 -8 155 -51 265 -153 43 -41 45 -47 15 -57 -21 -7 -21 -8 12 -19 33 -11
35 -15 33 -51 -2 -25 0 -34 6 -25 11 17 35 3 37 -21 1 -14 -4 -16 -22 -12 -13
3 -24 2 -24 -4 0 -5 -12 -8 -27 -5 -27 3 -28 3 -5 -8 17 -9 26 -9 34 -1 8 8
18 6 37 -7 14 -10 29 -19 33 -20 4 -1 25 -9 45 -18 44 -19 152 -19 192 0 25
12 72 85 65 99 -2 3 7 5 21 3 14 -1 25 1 25 6 0 4 10 11 23 15 21 6 46 33 43
44 0 3 9 19 22 35 14 17 19 31 13 33 -6 2 -9 8 -6 12 3 5 12 7 20 3 8 -3 15 0
15 6 0 6 -6 11 -13 11 -17 0 -18 31 -2 47 7 7 14 10 16 8 2 -2 5 8 5 21 1 14
-4 24 -11 24 -16 0 -14 30 3 48 15 16 16 32 2 32 -5 0 -10 -5 -10 -11 0 -16
-101 -119 -116 -119 -8 0 -14 -4 -14 -8 0 -10 -51 -35 -57 -28 -6 6 25 101 47
146 10 19 30 49 44 65 14 17 34 50 43 75 12 32 41 68 97 122 45 43 84 78 88
78 4 0 10 -5 13 -10 4 -6 27 -21 53 -35 26 -13 58 -36 71 -50 13 -14 37 -29
53 -32 15 -3 28 -11 28 -18 0 -17 -38 -50 -58 -50 -26 0 -63 -153 -63 -265 -1
-58 0 -60 9 -60 5 0 16 35 25 78 9 42 26 92 38 111 17 29 22 32 34 20 29 -30
-49 -319 -84 -311 -7 1 -10 -2 -6 -8 3 -5 1 -10 -4 -10 -6 0 -10 -3 -9 -8 2
-8 -11 -56 -42 -163 -17 -58 -29 -76 -97 -147 -43 -45 -95 -90 -115 -101 -51
-26 -184 -61 -255 -67 -32 -2 -68 -11 -80 -19 -12 -8 -30 -16 -40 -18 -10 -1
-23 -6 -30 -10 -31 -19 -216 30 -264 70 -8 7 -19 13 -23 13 -5 0 -23 12 -41
28 -18 15 -46 37 -63 50 -16 12 -42 41 -58 65 -15 23 -37 52 -48 65 -11 12
-16 22 -12 22 8 0 -45 94 -56 98 -11 5 -43 65 -40 75 1 4 -11 28 -28 52 -16
24 -30 48 -30 54 0 6 -39 55 -87 110 -106 120 -131 158 -137 212 -4 33 -2 40
9 35 16 -6 45 29 45 54 0 8 20 53 45 100 66 124 110 218 131 280 10 30 24 60
30 67 11 12 27 120 28 188 1 53 -40 32 -100 -50 -10 -15 -35 -48 -55 -74 -20
-25 -44 -61 -55 -79 -10 -17 -27 -35 -37 -38 -11 -3 -37 -24 -59 -45 -23 -22
-32 -36 -22 -32 17 6 17 5 5 -10 -7 -9 -17 -17 -22 -17 -5 0 -23 -13 -40 -30
-18 -16 -35 -27 -40 -24 -5 3 -23 1 -41 -4 -18 -5 -40 -5 -48 -1 -8 4 -28 11
-45 14 -36 8 -99 72 -143 145 -40 66 -120 152 -134 144 -5 -4 -8 -17 -5 -30 2
-13 0 -24 -4 -24 -5 0 -9 9 -9 20 0 12 -6 33 -14 48 -33 67 -95 369 -97 477
-2 52 -19 205 -49 435 -5 36 -16 97 -25 135 -24 103 -31 193 -20 257 8 47 13
56 25 48 20 -12 29 6 21 38 -6 21 -1 32 21 56 17 18 28 40 28 57 0 17 5 29 13
29 6 0 0 10 -15 23 -35 27 -48 84 -24 93 11 4 23 -1 32 -15 13 -18 22 -20 50
-15 22 4 34 2 34 -5 0 -6 5 -11 11 -11 6 0 9 7 5 15 -3 8 -2 15 2 15 7 0 72
102 72 114 0 3 -7 3 -15 0 -11 -5 -15 2 -15 27 -1 31 -2 32 -14 16 -8 -10 -28
-19 -44 -19 -19 -1 -29 -5 -26 -13 3 -7 -2 -15 -11 -19 -9 -3 -14 -2 -10 3 3
5 -1 12 -7 14 -10 4 -10 8 1 15 11 8 10 13 -7 27 -11 10 -18 24 -15 31 7 19
23 18 23 -1 0 -8 5 -15 10 -15 6 0 8 11 4 25 -5 21 -3 25 15 25 13 0 19 5 15
14 -4 11 0 13 15 9 13 -3 21 -1 21 6 0 7 5 9 10 6 6 -3 10 -2 10 3 0 6 11 13
25 16 20 5 23 10 16 29 -10 26 -4 47 13 47 7 0 25 11 40 25 15 14 35 25 45 25
10 0 21 9 24 20 3 11 13 20 22 20 14 0 15 -3 6 -14 -8 -10 -9 -16 -1 -21 5 -3
13 1 16 9 3 9 10 13 15 10 5 -3 9 -1 9 5 0 5 19 12 43 16 23 4 51 14 62 21 26
19 39 18 31 -3 -6 -16 -6 -16 12 0 24 22 43 22 35 1 -5 -14 -3 -15 15 -5 16 8
22 9 22 1 0 -6 4 -9 9 -6 5 3 7 16 3 28 -4 17 -2 20 11 15 10 -4 17 -2 17 3 0
6 7 10 16 10 18 0 74 53 74 69 0 6 4 11 8 11 5 0 14 12 21 27 9 19 15 23 20
15 4 -7 15 -10 24 -6 11 4 19 0 23 -10 8 -22 26 -20 22 2 -4 22 27 66 41 57 6
-3 11 0 11 8 0 18 39 67 40 50 0 -23 20 -14 20 10 1 20 2 20 11 5 5 -10 17
-18 26 -18 13 0 13 3 3 16 -8 8 -9 14 -4 13 29 -5 43 4 49 31 7 33 25 31 25
-3 l0 -21 16 22 c18 26 34 29 34 5 0 -15 2 -15 9 -4 5 8 23 13 43 12 18 -1 40
-2 48 -1 8 0 24 0 34 1 11 0 27 9 36 19 22 25 30 25 30 0 0 -38 37 -1 43 43 7
48 27 74 27 35 0 -15 5 -30 10 -33 6 -4 10 6 10 23 0 35 9 45 27 31 9 -9 17
-8 27 0 7 6 30 9 50 7 20 -2 38 0 42 5 3 5 13 7 22 5 10 -3 28 1 42 8 32 18
50 19 50 4z m-1430 -8 c0 -5 -7 -7 -15 -4 -8 4 -15 8 -15 10 0 2 7 4 15 4 8 0
15 -4 15 -10z m-600 -75 l-20 -60 5 48 c2 26 10 58 17 70 20 38 19 3 -2 -58z
m-897 -24 c2 -37 -1 -46 -16 -49 -47 -10 -64 64 -25 113 l22 28 8 -23 c5 -13
9 -43 11 -69z m1457 28 c0 -6 -6 -9 -14 -6 -8 3 -17 1 -19 -6 -2 -7 -8 -8 -13
-4 -5 4 -2 12 6 17 20 13 40 12 40 -1z m-645 -47 c-31 -26 -42 -23 -24 6 7 11
21 20 32 19 17 -1 16 -4 -8 -25z m1482 -14 c-3 -8 -6 -5 -6 6 -1 11 2 17 5 13
3 -3 4 -12 1 -19z m-747 8 c0 -9 -40 -13 -46 -5 -3 5 6 9 20 9 14 0 26 -2 26
-4z m-95 -16 c-3 -5 -12 -10 -20 -10 -7 0 -15 -6 -18 -12 -2 -7 -7 -10 -11 -7
-9 9 22 39 40 39 8 0 12 -4 9 -10z m-5 -30 c0 -5 -5 -10 -11 -10 -5 0 -7 5 -4
10 3 6 8 10 11 10 2 0 4 -4 4 -10z m-1826 -33 c23 -17 12 -63 -16 -70 -22 -6
-55 10 -63 31 -15 40 40 67 79 39z m1772 -2 c-21 -16 -32 -13 -21 4 3 6 14 11
23 11 15 -1 15 -2 -2 -15z m64 -15 c0 -5 -11 -10 -24 -10 -14 0 -28 -4 -31
-10 -3 -5 -11 -10 -17 -10 -6 0 -3 9 7 20 19 21 65 28 65 10z m630 0 c0 -5 -2
-10 -4 -10 -3 0 -8 5 -11 10 -3 6 -1 10 4 10 6 0 11 -4 11 -10z m-1329 -23
c-10 -9 -11 -8 -5 6 3 10 9 15 12 12 3 -3 0 -11 -7 -18z m-743 -46 c18 -27 32
-62 32 -77 0 -39 -38 -102 -73 -122 -28 -17 -29 -16 -52 10 -33 39 -52 127
-35 168 14 35 54 70 80 70 9 0 31 -22 48 -49z m1492 29 c11 -7 3 -9 -26 -7
-23 1 -40 5 -37 10 6 10 45 9 63 -3z m230 -171 c-7 -11 -14 -18 -17 -15 -3 3
0 12 7 21 18 21 23 19 10 -6z m-185 -19 c-3 -5 -13 -10 -21 -10 -8 0 -12 5 -9
10 3 6 13 10 21 10 8 0 12 -4 9 -10z m1945 6 c0 -3 -4 -8 -10 -11 -5 -3 -10
-1 -10 4 0 6 5 11 10 11 6 0 10 -2 10 -4z m-1915 -26 c-3 -5 -12 -10 -18 -10
-7 0 -6 4 3 10 19 12 23 12 15 0z m-1600 -56 c29 -19 31 -34 9 -97 -11 -34
-21 -47 -33 -45 -13 2 -15 -4 -13 -31 1 -19 9 -39 17 -45 10 -7 14 -23 11 -43
-2 -23 3 -37 18 -51 28 -26 60 -42 84 -42 26 0 168 -95 188 -125 9 -13 24 -27
34 -30 10 -3 25 -22 35 -43 9 -20 20 -45 25 -54 12 -21 13 -75 2 -82 -4 -2
-18 4 -31 13 -18 13 -35 17 -67 13 -36 -4 -48 0 -74 22 -35 29 -50 33 -50 12
0 -22 -19 -29 -36 -15 -10 9 -14 22 -10 41 4 23 0 32 -28 53 -43 33 -49 32
-43 -7 28 -172 29 -191 17 -229 -11 -33 -10 -44 7 -86 15 -38 25 -49 45 -51
14 -2 34 -12 44 -23 22 -24 32 -24 61 3 19 18 23 32 23 79 0 32 4 60 9 63 9 6
26 -28 37 -76 3 -16 12 -28 19 -28 7 0 18 -13 25 -30 7 -16 19 -30 26 -30 8 0
14 -6 14 -14 0 -24 59 -37 137 -30 68 6 74 5 92 -17 17 -21 22 -22 40 -11 11
6 34 12 50 12 36 0 55 -40 38 -80 -15 -35 -17 -36 -26 -21 -5 8 -14 10 -21 6
-9 -6 -9 -10 1 -17 10 -6 7 -8 -11 -6 -17 2 -30 14 -42 40 -14 28 -22 35 -37
31 -11 -3 -23 -13 -26 -23 -3 -10 -21 -30 -40 -44 -33 -25 -34 -30 -37 -99 -3
-64 -6 -73 -25 -82 -13 -5 -23 -14 -23 -19 0 -5 -7 -14 -16 -21 -14 -9 -14
-16 -5 -34 10 -18 8 -27 -11 -54 l-23 -32 -3 33 c-2 18 -12 42 -23 53 -17 17
-25 60 -21 112 1 10 15 37 31 61 35 50 35 100 1 128 -12 10 -26 15 -32 12 -5
-3 -17 1 -26 10 -28 24 -127 11 -152 -22 -15 -18 -26 -23 -43 -18 -32 8 -37 0
-24 -35 16 -42 124 -94 190 -92 37 2 47 -1 47 -13 0 -12 -6 -15 -25 -10 -14 4
-25 3 -25 -1 0 -5 -29 -7 -63 -5 -77 4 -99 -7 -178 -94 -31 -33 -62 -58 -69
-56 -9 3 -11 -1 -7 -12 4 -10 3 -15 -3 -11 -6 3 -10 13 -10 21 0 8 -9 14 -19
14 -10 0 -21 7 -25 15 -3 8 -11 13 -18 11 -7 -1 -10 -1 -7 1 14 9 -5 52 -28
62 -24 11 -25 13 -8 31 12 13 14 23 7 37 -5 10 -12 47 -15 82 -6 61 -9 67 -49
102 -24 21 -46 38 -50 39 -5 0 -8 15 -8 33 0 38 26 56 73 51 20 -2 37 5 59 26
28 28 30 32 24 87 -4 32 -8 85 -10 118 -1 33 -11 89 -20 125 -24 92 -26 183
-4 207 10 11 21 35 24 54 4 19 14 42 23 53 12 13 17 47 22 130 7 147 26 178
84 140z m1425 -33 c0 -5 -7 -14 -15 -21 -12 -10 -15 -10 -15 2 0 8 3 18 7 21
9 10 23 9 23 -2z m3368 -223 c7 -7 12 -16 12 -21 0 -24 -159 -54 -167 -31 -12
37 124 83 155 52z m-4203 -20 c32 -14 30 -48 -2 -63 -13 -5 -23 -13 -23 -17 0
-5 -6 -8 -13 -8 -22 0 -38 46 -27 75 11 28 26 31 65 13z m3826 -30 c28 -15 39
-28 39 -45 0 -38 29 -58 90 -60 37 -2 59 2 71 13 14 12 22 13 38 5 39 -21 68
-110 41 -126 -15 -10 -12 -63 6 -90 9 -14 14 -25 10 -25 -3 0 -1 -11 4 -25 8
-20 5 -27 -17 -45 -16 -12 -41 -20 -64 -20 -38 0 -58 13 -39 25 15 9 12 41 -4
55 -8 6 -12 18 -9 25 2 8 -8 26 -23 40 -21 19 -35 25 -53 20 -34 -9 -79 -42
-86 -64 -3 -10 -20 -22 -38 -27 -25 -8 -33 -16 -35 -37 -2 -15 -10 -27 -17
-27 -17 0 -44 49 -38 67 3 7 -12 20 -31 30 -43 20 -44 31 -9 84 25 38 26 43
15 90 -7 28 -12 61 -12 74 0 33 58 76 114 84 4 0 26 -9 47 -21z m-3949 -43 c3
-13 3 -27 0 -30 -9 -9 -32 17 -32 36 0 28 27 23 32 -6z m6128 -59 c39 -19 45
-27 48 -57 5 -64 -66 -71 -175 -17 -79 39 -45 87 67 96 8 1 35 -9 60 -22z
m-1180 -49 c85 -29 95 -35 98 -58 2 -20 -2 -28 -19 -32 -20 -5 -19 -9 26 -61
37 -43 54 -56 76 -56 15 0 30 4 34 9 3 5 18 12 34 16 37 8 45 28 26 65 -22 42
-19 58 16 76 26 13 51 15 143 9 90 -5 118 -4 148 9 76 32 132 10 73 -28 -17
-11 -25 -26 -25 -45 0 -34 46 -100 83 -120 26 -14 67 -83 67 -113 0 -8 -9 -27
-21 -42 -18 -23 -26 -26 -57 -20 -21 4 -64 19 -97 33 -80 36 -100 28 -151 -57
-42 -71 -72 -97 -120 -107 -41 -8 -82 26 -125 104 -30 55 -35 59 -83 70 -63
15 -125 50 -155 90 -13 17 -31 31 -40 31 -9 0 -27 9 -41 20 -14 11 -32 20 -41
20 -9 0 -22 7 -29 15 -11 13 -54 12 -70 -2 -9 -8 34 -33 57 -33 13 0 23 -6 23
-14 0 -20 -68 -26 -105 -10 -16 7 -57 18 -89 23 -126 23 -162 63 -130 146 9
25 25 50 35 56 10 5 87 14 170 19 84 5 154 12 157 15 10 9 36 4 132 -28z
m1997 -94 c43 -14 53 -21 51 -36 -4 -26 -17 -32 -115 -50 -93 -17 -180 -65
-189 -103 -3 -13 -25 -34 -47 -48 -41 -24 -157 -148 -157 -168 0 -39 -112 -72
-180 -53 -62 17 -78 16 -126 -9 -27 -14 -64 -29 -82 -32 -27 -5 -37 -14 -49
-43 -24 -58 -38 -68 -98 -70 -48 -1 -58 3 -104 39 -28 22 -55 40 -60 40 -5 0
-18 11 -29 25 -11 14 -23 25 -26 25 -4 0 -11 -11 -16 -25 -10 -25 -25 -30 -95
-25 -44 2 -117 41 -110 58 3 7 5 25 5 38 0 37 24 39 91 9 53 -23 64 -25 90
-15 16 7 26 16 24 21 -9 14 18 49 38 49 10 0 20 7 23 15 4 10 20 14 55 12 46
-2 51 0 102 51 52 52 54 53 98 46 24 -4 46 -10 49 -14 10 -13 75 -40 109 -46
24 -4 53 1 87 15 29 11 60 18 70 15 11 -2 38 2 61 9 42 12 62 34 114 117 27
44 85 89 173 135 56 29 78 35 128 35 34 0 85 -8 115 -17z m-634 -116 c12 -13
14 -24 8 -30 -11 -11 -64 -12 -81 -2 -11 7 -14 48 -4 58 12 11 58 -4 77 -26z
m-6013 -76 c0 -23 -64 -76 -80 -66 -19 12 -9 40 23 62 41 27 57 28 57 4z
m6759 -12 c17 -6 31 -14 31 -18 0 -4 15 -15 33 -24 137 -67 168 -84 178 -103
7 -13 29 -27 55 -34 51 -15 104 -68 104 -105 0 -39 -25 -55 -85 -55 -59 0 -54
6 -75 -87 -14 -63 -50 -98 -109 -108 -54 -9 -78 1 -86 33 -5 27 -7 27 -88 28
-72 1 -92 5 -160 36 -58 27 -85 45 -106 76 -21 28 -40 42 -67 49 -21 4 -39 13
-41 19 -5 15 62 54 93 54 19 0 28 9 43 43 11 23 22 54 25 69 5 21 15 30 46 38
24 7 55 27 82 55 46 47 70 54 127 34z m-2445 -62 c37 -70 33 -91 -19 -94 -55
-4 -146 19 -158 39 -13 20 8 47 63 84 58 38 81 32 114 -29z m-6646 6 c59 -37
82 -74 82 -132 0 -29 6 -44 23 -58 28 -22 40 -62 25 -80 -12 -15 -7 -25 7 -15
6 4 22 23 37 43 22 30 32 36 54 31 18 -3 30 0 36 12 12 22 31 21 20 -1 -13
-26 -4 -43 24 -43 41 0 27 -27 -30 -59 -61 -36 -73 -37 -97 -15 -14 12 -40 17
-106 18 l-88 1 -8 50 c-5 28 -10 64 -13 80 -3 24 -16 38 -64 68 l-61 37 27 28
c24 23 71 49 97 51 4 1 20 -7 35 -16z m783 -26 c21 -16 39 -51 39 -75 0 -25
-39 -42 -95 -42 -35 0 -52 6 -77 29 -27 25 -31 33 -22 48 27 44 119 68 155 40z
m1547 -85 c2 -12 -1 -22 -7 -22 -13 0 -32 35 -24 44 12 12 28 0 31 -22z m3656
-31 c9 -10 34 -21 56 -25 21 -3 40 -11 42 -16 2 -6 24 -12 48 -13 50 -3 57 -7
112 -49 20 -16 56 -32 80 -36 37 -6 43 -11 46 -34 3 -23 -4 -31 -50 -57 -29
-17 -65 -31 -79 -31 -33 0 -65 31 -74 72 -4 18 -26 51 -52 76 -42 43 -46 44
-94 40 -42 -4 -54 -2 -70 15 -20 22 -23 35 -13 61 8 21 27 20 48 -3z m-4718
-35 c19 -20 18 -26 -6 -26 -13 0 -20 7 -20 20 0 24 6 25 26 6z m1079 -86 c3
-5 1 -10 -4 -10 -6 0 -11 5 -11 10 0 6 2 10 4 10 3 0 8 -4 11 -10z m4635 -10
c23 -23 24 -29 10 -66 -15 -39 -57 -74 -89 -74 -35 0 -67 23 -57 41 16 33 34
60 51 79 10 11 15 20 11 20 -4 0 -4 5 -1 10 10 17 54 11 75 -10z m1630 -35 c0
-8 -4 -15 -10 -15 -5 0 -18 -17 -29 -39 -28 -55 -57 -65 -91 -31 -16 16 -18
25 -10 40 6 11 17 20 24 20 7 0 21 9 31 20 22 24 85 28 85 5z m-2647 -125 c33
-20 47 -49 47 -100 0 -27 -36 -31 -85 -10 -50 22 -61 46 -44 95 15 41 33 44
82 15z m-3446 -155 c-5 -28 -2 -35 14 -40 16 -5 19 -15 17 -52 -1 -35 -9 -54
-36 -87 -19 -22 -38 -42 -42 -44 -4 -1 -10 15 -14 38 -3 22 -11 40 -16 40 -13
0 5 45 30 77 10 13 22 38 25 56 13 57 31 68 22 12z m4277 -20 c16 -15 26 -35
26 -51 0 -28 -38 -94 -53 -94 -4 0 -25 -11 -45 -25 -20 -14 -40 -25 -44 -25
-5 0 -8 16 -8 35 0 20 -7 51 -15 71 -18 43 -7 77 32 98 41 22 77 19 107 -9z
m2841 -55 c4 -6 1 -17 -5 -25 -9 -11 -7 -20 9 -43 20 -28 20 -30 2 -46 -23
-21 -35 -8 -52 58 -10 40 -10 50 2 57 19 12 36 11 44 -1z m-7679 -47 c-4 -16
-11 -46 -16 -68 -20 -96 -45 -145 -83 -162 -41 -19 -61 10 -38 55 8 14 21 45
26 62 1 3 6 22 12 42 11 37 67 97 92 98 10 0 11 -8 7 -27z m3874 -42 c0 -22
-16 -36 -24 -22 -8 12 3 41 15 41 5 0 9 -9 9 -19z m-5589 -14 c8 -7 18 -20 22
-29 5 -14 15 -16 55 -11 63 7 94 -8 90 -44 -2 -14 -14 -34 -28 -44 -21 -16
-31 -17 -62 -9 -26 8 -35 15 -31 25 7 19 -11 19 -26 1 -9 -11 -18 -10 -54 8
-30 15 -60 21 -104 20 -35 0 -63 3 -63 6 0 12 79 60 98 60 10 0 22 4 28 9 7 8
29 15 54 20 3 0 12 -5 21 -12z m9447 -12 c-3 -3 -9 2 -12 12 -6 14 -5 15 5 6
7 -7 10 -15 7 -18z m-2598 -27 c0 -4 -9 -14 -21 -22 -12 -8 -19 -20 -16 -28 2
-7 1 -20 -4 -29 -6 -13 1 -20 32 -34 38 -18 42 -18 69 -2 43 26 99 21 167 -13
75 -38 83 -47 122 -146 18 -45 39 -91 48 -104 18 -25 87 -59 121 -60 28 0 102
-59 102 -81 0 -30 -103 -108 -157 -116 -41 -7 -56 8 -47 49 8 41 -13 96 -44
113 -47 26 -79 59 -102 105 -12 25 -34 57 -48 72 -24 26 -115 68 -147 68 -16
0 -51 34 -100 96 -16 21 -40 47 -51 58 -43 42 -38 88 11 98 21 4 65 -12 65
-24z m-1002 -39 c11 -17 8 -22 -18 -38 -33 -20 -80 -17 -80 5 0 42 77 67 98
33z m545 -13 c27 -1 18 -54 -13 -78 -29 -21 -88 -16 -97 9 -8 20 57 85 77 77
8 -4 23 -7 33 -8z m-3965 -216 c27 -25 28 -56 3 -63 -14 -3 -17 -11 -14 -29 4
-21 0 -27 -28 -37 -46 -16 -67 -14 -78 8 -21 38 9 90 52 91 10 0 17 8 17 18 0
37 17 41 48 12z m3826 -42 c37 -53 2 -136 -53 -123 -36 8 -72 50 -67 78 3 12
5 25 5 30 1 4 9 7 20 7 10 0 24 7 31 15 18 22 46 18 64 -7z m-4154 -12 c0 -19
-58 -42 -71 -29 -7 7 -3 16 12 27 29 20 59 21 59 2z m-1248 -49 c20 -10 38
-25 40 -35 5 -25 -29 -90 -51 -97 -10 -3 -26 -14 -36 -25 -43 -48 -135 -6
-135 61 0 48 22 75 74 88 25 6 48 16 51 21 4 6 9 9 13 7 4 -2 24 -11 44 -20z
m688 -56 c0 -26 -17 -44 -34 -38 -17 7 -20 35 -9 76 l6 24 19 -22 c10 -13 18
-31 18 -40z m6875 19 c0 -8 -10 -16 -22 -18 -18 -3 -23 2 -23 18 0 16 5 21 23
18 12 -2 22 -10 22 -18z m-615 -32 c60 -46 61 -46 102 -53 29 -4 42 -13 53
-35 9 -17 13 -30 9 -30 -3 0 1 -12 11 -26 18 -29 14 -57 -9 -48 -8 3 -24 -4
-35 -15 -12 -12 -27 -21 -35 -21 -45 0 -258 132 -264 163 -6 28 19 78 42 87
43 18 82 11 126 -22z m-1034 -10 c-8 -41 -33 -68 -62 -68 -28 0 -48 32 -38 63
9 30 22 37 68 37 38 0 38 0 32 -32z m-1148 -60 c-2 -16 -12 -24 -31 -28 -26
-5 -65 -31 -114 -77 l-23 -22 0 39 c0 21 3 46 7 55 9 24 80 55 126 55 34 0 38
-3 35 -22z m2410 -55 c2 -8 -5 -13 -17 -13 -12 0 -21 6 -21 16 0 18 31 15 38
-3z m222 -23 c5 -8 5 -21 -1 -31 -13 -25 -12 -29 11 -29 11 0 42 -22 70 -50
38 -38 58 -50 81 -50 44 0 119 -37 119 -59 0 -27 -31 -49 -79 -57 -28 -5 -55
-18 -74 -36 -17 -15 -37 -26 -46 -24 -9 3 -32 7 -51 11 -19 3 -56 11 -82 17
-32 8 -51 8 -60 1 -7 -5 -41 -9 -76 -7 -63 2 -108 21 -119 50 -8 22 6 81 21
87 8 3 45 -1 83 -10 100 -23 96 -20 89 -48 -5 -18 -2 -27 9 -31 18 -7 47 24
40 43 -2 7 2 10 9 7 9 -4 14 2 13 18 0 13 1 28 2 33 2 6 3 22 2 38 -1 25 -4
27 -40 27 -45 0 -71 20 -71 55 0 16 -8 26 -22 31 -21 6 -21 7 -2 21 25 19 161
14 174 -7z m-6720 -40 c6 -10 13 -46 17 -80 5 -49 3 -64 -12 -80 -17 -19 -18
-19 -55 11 -21 17 -40 40 -43 51 -8 27 28 105 50 111 31 8 32 8 43 -13z m6067
-115 c25 -17 21 -40 -8 -56 -27 -14 -59 6 -59 36 0 21 7 26 40 34 3 0 15 -6
27 -14z m-5569 -12 c-2 -9 -8 -18 -15 -20 -7 -3 -9 3 -6 16 6 25 26 28 21 4z
m4184 -75 c8 -13 13 -30 11 -39 -5 -19 -44 -39 -77 -39 -12 0 -31 -6 -41 -14
-14 -10 -25 -11 -42 -3 -12 5 -20 13 -18 18 3 4 1 10 -4 13 -5 4 -12 2 -16 -4
-7 -12 -25 -14 -25 -2 0 8 49 32 67 32 7 0 32 13 55 30 52 35 71 37 90 8z
m386 -44 c1 -10 -9 -32 -24 -47 -23 -25 -32 -28 -77 -25 -65 4 -70 26 -12 48
22 8 51 23 65 33 29 20 44 18 48 -9z m-5107 -51 c8 -9 17 -52 21 -97 5 -45 11
-103 14 -131 4 -27 6 -99 4 -158 -1 -91 2 -121 25 -195 41 -135 44 -145 59
-161 10 -13 12 -33 5 -93 -7 -57 -5 -93 5 -138 8 -33 12 -69 9 -79 -3 -11 2
-44 10 -73 9 -29 18 -75 21 -103 2 -27 12 -72 22 -100 9 -27 23 -84 30 -125 7
-41 20 -105 29 -143 10 -37 15 -73 12 -81 -3 -8 -26 -22 -51 -31 -42 -16 -48
-16 -78 -2 -40 19 -64 9 -138 -62 -34 -33 -68 -55 -103 -66 -29 -9 -72 -27
-96 -41 -24 -13 -47 -24 -51 -24 -14 0 -19 74 -9 119 29 123 37 137 97 174 70
43 87 62 96 105 7 38 61 112 81 112 8 0 16 4 19 8 11 18 -20 87 -52 118 -28
27 -39 32 -66 27 -18 -3 -59 0 -90 7 -56 11 -59 11 -85 -14 -32 -31 -79 -34
-109 -8 -28 24 -14 58 28 67 17 4 38 18 47 31 18 28 62 54 92 54 31 0 36 18
36 131 0 99 2 108 28 145 15 22 27 51 27 65 0 41 21 102 46 136 20 26 24 46
27 120 2 48 0 99 -5 113 -6 14 -12 71 -13 127 -3 75 -8 109 -21 128 -14 22
-15 32 -5 68 24 86 51 108 82 70z m4499 -7 c0 -16 -18 -31 -27 -22 -8 8 5 36
17 36 5 0 10 -6 10 -14z m-177 -26 c4 -4 1 -12 -7 -19 -12 -10 -21 -9 -46 4
-17 9 -28 20 -25 25 6 10 64 2 78 -10z m1474 -2 c16 -13 -3 -52 -50 -102 -39
-41 -80 -47 -127 -19 -38 22 -43 49 -18 94 19 34 26 38 67 42 57 5 112 -2 128
-15z m-1233 -11 c23 -36 -44 -76 -78 -48 -8 6 -21 8 -31 5 -36 -14 -8 20 35
43 48 25 58 25 74 0z m-4967 -45 c17 -9 43 -34 58 -56 24 -36 25 -40 10 -56
-32 -35 -70 -44 -134 -29 -85 19 -96 29 -85 81 7 35 15 46 44 60 43 22 66 22
107 0z m4710 -4 c-3 -8 -6 -5 -6 6 -1 11 2 17 5 13 3 -3 4 -12 1 -19z m2287
-49 c10 -9 -20 -79 -38 -91 -6 -4 -25 -8 -42 -8 -23 0 -36 7 -49 26 -15 23
-15 27 -1 49 25 38 100 52 130 24z m-641 -31 c19 -15 57 -101 57 -128 0 -27
-21 -70 -34 -70 -34 0 -86 24 -113 52 -30 31 -62 122 -48 137 4 3 30 8 58 12
29 3 55 7 58 8 3 0 13 -5 22 -11z m-6520 -62 c7 -16 -1 -26 -20 -26 -7 0 -13
9 -13 20 0 23 25 27 33 6z m987 -10 c0 -8 -4 -17 -9 -21 -12 -7 -24 12 -16 25
9 15 25 12 25 -4z m361 -58 c-5 -74 -15 -84 -57 -50 -20 16 -34 36 -34 49 0
26 35 53 70 53 24 0 25 -2 21 -52z m789 12 c30 -30 25 -42 -16 -35 -30 4 -74
35 -74 52 0 1 16 3 35 3 22 0 43 -8 55 -20z m3065 8 c66 3 91 -7 118 -49 33
-50 33 -57 1 -69 -33 -13 -34 -13 -34 5 0 8 -4 15 -8 15 -5 0 -14 11 -20 25
-10 21 -18 25 -56 25 -25 0 -48 -4 -51 -10 -11 -18 -54 -11 -65 11 -13 24 -14
23 25 43 17 9 37 13 45 9 8 -4 29 -6 45 -5z m320 -34 c37 -24 32 -44 -10 -44
-37 0 -52 17 -41 45 7 19 21 19 51 -1z m-4730 -64 c3 -5 -3 -10 -14 -10 -12 0
-21 5 -21 10 0 6 6 10 14 10 8 0 18 -4 21 -10z m5203 -47 c23 -25 23 -52 0
-80 -24 -30 -131 -2 -143 37 -5 16 0 26 21 43 54 43 83 43 122 0z m896 -25
c48 -14 66 -25 66 -44 0 -10 -16 -14 -63 -14 -79 0 -106 20 -71 54 19 19 16
19 68 4z m-3274 -17 c0 -5 -7 -14 -15 -21 -16 -14 -18 -10 -9 14 6 17 24 22
24 7z m-1286 -53 c7 -13 19 -45 25 -71 10 -43 10 -51 -9 -78 -27 -36 -43 -45
-102 -54 -26 -4 -49 -13 -52 -21 -3 -8 -10 -14 -17 -14 -6 0 -8 7 -5 15 7 19
-14 55 -32 55 -7 0 -37 -18 -66 -40 -62 -47 -90 -47 -124 -1 -14 20 -35 31
-75 40 -62 14 -81 37 -48 60 12 7 21 22 21 32 0 22 30 26 58 8 15 -10 23 -7
46 16 16 16 33 24 42 21 9 -3 39 -9 68 -12 41 -5 56 -3 69 10 27 28 100 56
144 56 33 0 46 -5 57 -22z m1206 12 c0 -5 -4 -10 -10 -10 -5 0 -10 5 -10 10 0
6 5 10 10 10 6 0 10 -4 10 -10z m-3988 -24 c17 -25 -8 -76 -37 -76 -7 0 -25
-11 -41 -25 -35 -30 -74 -32 -99 -4 -18 19 -18 21 -2 52 21 38 48 57 91 64 17
3 33 7 35 9 7 7 45 -8 53 -20z m1973 -37 c-3 -9 -12 -20 -20 -23 -19 -7 -20
35 -4 67 l12 21 9 -23 c5 -13 6 -32 3 -42z m195 -77 c0 -27 -21 -50 -52 -58
-38 -9 -46 17 -16 49 28 30 68 35 68 9z m4133 -41 c22 -24 1 -106 -29 -120
-27 -12 -36 -3 -53 57 -10 37 -10 47 3 67 17 26 55 24 79 -4z m-1323 -20 c0
-5 10 -11 23 -13 18 -2 23 -10 25 -44 6 -80 -29 -118 -66 -72 -9 11 -25 29
-34 40 -10 10 -13 18 -8 18 6 0 10 13 10 28 0 15 5 33 12 40 14 14 38 16 38 3z
m1644 -12 c31 -24 34 -59 7 -83 -18 -16 -21 -16 -59 3 -44 23 -52 35 -45 74 5
23 11 27 38 27 18 0 44 -9 59 -21z m-5033 -11 c60 -45 88 -128 42 -128 -27 0
-70 -39 -76 -70 -4 -17 -13 -30 -22 -30 -19 0 -47 44 -51 78 -2 15 -6 47 -9
72 -6 39 -3 48 20 73 31 33 56 34 96 5z m5577 10 c30 -30 5 -118 -34 -118 -17
0 -54 36 -54 53 1 56 56 97 88 65z m1708 -158 c26 -27 54 -52 63 -55 15 -5 61
-63 61 -78 0 -13 -56 -35 -105 -42 -63 -9 -91 -27 -112 -70 -16 -35 -36 -45
-48 -25 -13 22 -91 10 -164 -25 -79 -38 -97 -41 -124 -21 -26 20 -4 62 46 87
112 58 203 157 221 241 6 28 20 35 78 37 32 1 43 -6 84 -49z m-8126 0 c0 -5
-4 -10 -10 -10 -5 0 -10 5 -10 10 0 6 5 10 10 10 6 0 10 -4 10 -10z m6431 -18
c13 -10 45 -26 71 -36 33 -12 48 -24 52 -41 18 -72 -54 -109 -157 -81 -74 21
-118 13 -160 -28 -27 -28 -46 -35 -129 -51 -53 -10 -103 -15 -112 -12 -11 4
-16 19 -16 43 0 21 -5 52 -12 71 -11 29 -10 35 12 58 31 33 92 50 132 36 16
-6 50 -24 76 -42 46 -31 46 -31 76 -13 35 19 75 63 76 81 0 14 28 32 51 33 9
0 27 -8 40 -18z m-5815 -16 c11 -45 -25 -65 -46 -25 -9 15 -8 24 1 35 18 21
38 17 45 -10z m514 -13 c0 -10 -8 -31 -19 -46 l-18 -28 -6 37 c-7 44 -3 54 24
54 11 0 19 -7 19 -17z m4628 -45 c3 -25 0 -28 -27 -28 -36 0 -42 7 -30 38 13
34 53 27 57 -10z m1627 18 c19 -14 19 -15 0 -51 -29 -53 -38 -58 -78 -41 -43
17 -55 48 -33 81 13 19 25 25 54 25 21 0 47 -6 57 -14z m-8456 -208 c22 -62
25 -135 7 -163 -9 -14 -23 -25 -31 -25 -33 0 -60 -94 -57 -199 1 -45 -15 -88
-43 -111 -26 -21 -81 12 -89 54 -3 17 -15 48 -26 69 -11 21 -17 43 -13 49 3 7
6 50 4 96 -2 81 -1 86 26 114 16 17 50 35 81 44 55 16 92 46 92 74 0 41 35 40
49 -2z m307 -13 c18 -14 36 -25 40 -25 11 0 102 -98 97 -104 -3 -3 -7 -23 -9
-44 -3 -33 0 -41 21 -50 14 -6 25 -16 25 -22 0 -5 5 -10 11 -10 5 0 7 5 3 11
-4 8 0 8 15 0 11 -7 21 -20 21 -30 0 -11 7 -21 15 -25 20 -7 19 -26 -2 -42
-32 -24 -57 -16 -83 26 -13 22 -31 40 -40 40 -9 0 -21 5 -27 11 -7 7 -22 4
-49 -10 -21 -12 -47 -21 -57 -21 -10 0 -27 -4 -37 -10 -31 -17 -50 -2 -50 40
0 39 18 62 56 74 16 5 20 12 17 26 -3 11 -9 20 -13 20 -7 0 -29 62 -31 90 -5
57 2 80 23 80 11 0 36 -11 54 -25z m2244 -5 c0 -11 -4 -20 -9 -20 -11 0 -22
26 -14 34 12 12 23 5 23 -14z m-1980 -20 c0 -20 -13 -40 -26 -40 -14 0 -20 41
-8 53 8 7 34 -3 34 -13z m2618 -8 c2 -12 8 -19 14 -16 6 4 8 -1 4 -14 -4 -12
-1 -26 9 -36 9 -9 13 -20 10 -26 -3 -5 -2 -10 2 -10 5 0 16 -18 26 -40 10 -25
31 -49 51 -61 19 -11 45 -36 60 -57 32 -46 131 -142 147 -142 7 0 44 -15 83
-34 125 -61 211 -155 311 -341 21 -38 53 -95 70 -126 45 -78 51 -99 28 -99
-43 0 -255 41 -338 65 -336 98 -583 278 -676 492 -45 104 -74 237 -64 300 12
78 101 154 179 151 20 -1 42 4 48 10 17 17 32 9 36 -16z m5085 -97 c37 -15 8
-45 -44 -45 -54 0 -90 16 -82 36 12 31 63 35 126 9z m-5883 -40 c10 -12 9 -15
-4 -15 -10 0 -15 4 -12 9 4 5 0 12 -6 14 -8 4 -9 6 -2 6 6 1 17 -6 24 -14z
m5457 -64 c10 -10 38 -23 63 -28 41 -8 45 -11 57 -52 7 -24 10 -48 7 -52 -9
-15 -56 -10 -75 7 -10 9 -35 18 -56 21 -41 5 -59 16 -74 44 -7 15 -3 25 22 49
18 16 33 30 35 30 2 0 11 -9 21 -19z m-445 -13 c15 -12 22 -35 19 -64 -3 -33
-93 -7 -107 31 -14 37 52 61 88 33z m588 2 c0 -5 -4 -10 -10 -10 -5 0 -10 5
-10 10 0 6 5 10 10 10 6 0 10 -4 10 -10z m-5927 -28 c41 -42 35 -58 -29 -82
-31 -11 -66 -27 -78 -35 -35 -25 -51 -19 -51 19 0 26 10 46 41 80 49 54 78 59
117 18z m5645 -166 c21 -13 13 -50 -19 -84 l-31 -33 -36 32 c-47 40 -55 54
-47 80 6 18 13 20 64 16 32 -2 63 -7 69 -11z m-7015 -67 c-6 -6 -18 -6 -28 -3
-18 7 -18 8 1 14 23 9 39 1 27 -11z m4557 -164 c39 -20 32 -36 -48 -96 -91
-68 -97 -65 -63 29 32 86 51 98 111 67z m3724 5 c33 -12 61 -69 52 -104 -8
-34 -38 -52 -113 -67 -50 -10 -64 -10 -77 0 -23 19 -20 52 10 111 32 65 70 82
128 60z m-9354 -55 c0 -14 -4 -25 -10 -25 -11 0 -14 33 -3 43 11 11 13 8 13
-18z m8290 -57 c25 -42 25 -86 -1 -118 -20 -23 -21 -23 -31 -6 -6 10 -18 26
-28 36 -58 58 -51 120 12 120 21 0 33 -8 48 -32z m744 -303 c3 -9 21 -24 40
-36 18 -11 40 -34 47 -52 7 -18 18 -39 26 -48 20 -24 -11 -46 -74 -51 -47 -4
-53 -3 -53 13 0 11 6 19 13 19 21 0 34 50 23 88 -7 25 -17 35 -38 39 -26 5
-36 22 -21 36 11 12 31 8 37 -8z m-74 -121 c0 -8 -4 -12 -10 -9 -5 3 -10 13
-10 21 0 8 5 12 10 9 6 -3 10 -13 10 -21z m-8030 -474 c67 -34 88 -78 96 -199
6 -91 5 -104 -8 -98 -9 3 -28 -1 -43 -9 -27 -14 -65 -5 -65 16 0 5 -11 17 -24
25 -36 24 -98 5 -125 -38 -26 -42 -70 -69 -94 -56 -25 14 -21 34 19 101 29 48
34 61 24 73 -7 8 -21 15 -30 15 -27 0 -82 59 -78 83 2 12 19 32 38 45 29 20
43 23 85 18 41 -5 59 -2 100 19 61 30 57 30 105 5z m8322 -87 c10 -9 18 -24
18 -35 0 -10 9 -27 20 -38 24 -24 25 -38 4 -68 -22 -31 -67 -29 -93 4 -12 15
-21 32 -21 39 0 6 -9 20 -20 30 -16 14 -17 21 -8 39 25 46 67 59 100 29z
m-656 -92 c-15 -14 -18 -14 -26 -1 -7 11 -4 17 8 21 26 10 36 -1 18 -20z m419
-117 c56 -9 85 -38 85 -85 0 -20 -6 -41 -12 -46 -19 -15 -155 -25 -163 -13 -3
5 -16 10 -28 10 -31 0 -47 13 -52 40 -9 49 52 113 100 105 17 -3 48 -8 70 -11z
m-8546 -8 c22 16 41 11 41 -10 0 -20 30 -41 52 -38 10 2 18 -1 18 -7 0 -5 -10
-11 -22 -13 -16 -2 -31 -18 -48 -53 -32 -64 -83 -93 -132 -76 -67 24 -78 37
-78 95 0 57 9 71 64 100 25 13 33 13 56 1 23 -12 30 -12 49 1z m9022 -118 c45
-50 50 -84 17 -123 -20 -23 -33 -27 -99 -32 -85 -6 -148 8 -150 35 -4 59 19
138 44 154 7 4 43 8 81 8 68 0 69 0 107 -42z m-787 -64 c8 -21 -1 -34 -23 -34
-14 0 -17 6 -13 25 5 28 27 33 36 9z m-7909 -94 c7 -22 57 -54 97 -64 23 -5
34 1 68 35 43 44 65 47 65 8 0 -19 -7 -26 -37 -33 -36 -9 -38 -12 -38 -48 0
-29 -4 -38 -17 -39 -33 -2 -38 -4 -63 -21 -32 -20 -125 -34 -135 -19 -3 6 -29
11 -56 11 -57 0 -89 13 -89 36 0 20 29 84 48 107 8 9 25 17 37 17 13 0 29 7
36 16 31 38 71 34 84 -6z m5709 -137 c3 -21 10 -81 16 -133 6 -52 17 -131 25
-175 8 -44 19 -123 25 -175 6 -52 21 -173 33 -269 24 -189 24 -189 89 -190 31
-1 48 -25 48 -69 l0 -30 -97 -6 c-54 -4 -132 -9 -174 -12 -73 -5 -77 -4 -83
18 -3 13 -6 35 -6 50 0 28 6 32 73 44 20 3 37 10 37 15 0 5 -25 194 -55 419
-30 225 -55 414 -55 419 0 6 -17 13 -37 16 -71 12 -83 21 -83 64 0 48 1 48
137 50 l101 1 6 -37z m2172 6 c24 -25 25 -29 10 -35 -28 -11 -66 12 -66 39 0
32 23 30 56 -4z m-2598 -104 c19 -191 82 -766 88 -811 5 -41 5 -41 55 -47 27
-3 54 -9 59 -12 15 -9 12 -85 -2 -90 -7 -2 -61 -6 -120 -9 l-108 -5 -6 27 c-3
15 -7 32 -9 39 -2 7 -19 -2 -39 -22 -44 -41 -112 -65 -186 -65 -199 0 -319
162 -320 430 0 162 50 277 144 331 44 25 61 29 126 29 76 0 142 -21 182 -57
17 -15 18 -14 17 18 0 19 -6 83 -12 144 l-12 109 -55 11 c-53 10 -55 11 -58
43 -6 62 -4 63 125 60 l118 -3 13 -120z m2878 69 c34 -3 58 -12 69 -24 21 -23
33 -114 16 -124 -6 -4 -11 -20 -11 -36 0 -26 -5 -31 -42 -40 -22 -7 -72 -13
-110 -14 -63 -2 -71 -5 -97 -33 -26 -29 -27 -33 -14 -58 9 -17 12 -40 8 -64
-10 -59 -19 -64 -40 -23 -10 20 -29 51 -42 69 -32 44 -31 102 3 159 25 42 26
51 20 123 l-6 78 97 -4 c54 -2 121 -6 149 -9z m-4666 -113 c0 -79 -2 -81 -86
-81 l-54 0 0 68 c0 38 3 72 7 75 3 4 35 7 70 7 l63 0 0 -69z m-3284 35 c3 -13
-2 -48 -10 -77 -13 -44 -14 -63 -5 -104 11 -48 9 -55 -16 -106 -15 -29 -31
-56 -35 -59 -14 -9 -50 -89 -50 -109 0 -26 -53 -55 -86 -47 -31 8 -31 36 0 73
39 48 45 67 39 126 -6 55 -13 64 -47 58 -13 -3 -119 42 -131 55 -5 6 -27 21
-47 33 -30 18 -38 29 -38 51 0 52 108 94 140 55 18 -22 67 -18 91 6 14 14 29
19 46 16 18 -3 39 4 67 24 51 35 74 37 82 5z m2819 -183 c4 -98 10 -316 14
-485 3 -168 9 -309 12 -312 4 -4 29 -9 57 -13 49 -5 52 -7 58 -39 10 -54 3
-61 -77 -69 -117 -12 -283 -22 -291 -18 -13 7 -9 93 5 98 6 2 32 9 56 15 l44
11 -7 332 c-3 183 -9 378 -12 434 l-6 102 -52 3 -51 3 -3 43 c-2 30 1 44 12
48 18 7 137 21 192 23 l41 1 8 -177z m-570 42 c113 -30 165 -93 173 -210 6
-90 -18 -147 -84 -202 l-43 -37 37 -16 c87 -39 139 -145 128 -257 -9 -86 -38
-144 -98 -198 -82 -74 -127 -85 -395 -97 -258 -12 -263 -11 -263 48 0 36 8 44
54 54 24 4 31 11 32 30 1 14 5 190 9 392 l8 366 -44 9 c-39 8 -44 12 -47 38
-4 55 3 57 195 76 230 22 267 22 338 4z m3881 -36 c50 -24 74 -59 102 -149 22
-73 49 -217 41 -224 -3 -3 -80 -11 -172 -19 -92 -7 -170 -16 -173 -20 -3 -3 4
-35 15 -70 25 -75 79 -143 120 -152 42 -9 106 11 147 47 39 35 49 31 59 -24 6
-33 3 -40 -33 -76 -30 -30 -53 -43 -95 -52 -206 -47 -372 179 -355 485 3 51
12 97 25 126 24 53 82 115 127 135 48 21 142 18 192 -7z m-7142 -53 c-4 -24
-2 -35 9 -39 17 -6 40 -84 35 -117 -4 -34 -24 -35 -53 -5 -25 25 -26 29 -21
106 3 45 9 85 12 90 12 20 24 -4 18 -35z m9680 8 c22 -8 20 -21 -4 -29 -28 -9
-44 3 -29 21 13 16 12 16 33 8z m-4545 -33 c50 -26 97 -83 115 -141 15 -45 46
-323 46 -411 0 -59 18 -79 70 -79 44 0 45 -1 54 -52 5 -30 3 -39 -11 -46 -10
-5 -96 -13 -191 -17 l-173 -7 3 48 3 49 49 12 c26 7 51 14 54 17 7 8 -26 385
-39 430 -22 78 -94 115 -186 96 -56 -12 -92 -34 -124 -74 l-22 -28 13 -222 c7
-121 14 -224 17 -228 2 -5 22 -8 43 -8 61 0 70 -7 70 -55 0 -43 0 -43 -42 -49
-24 -3 -107 -8 -186 -12 l-143 -7 3 48 3 49 48 12 c27 7 51 14 53 17 3 2 -2
112 -11 243 -8 132 -15 251 -15 265 0 25 -4 27 -61 33 l-60 7 3 47 3 47 114 8
c63 4 116 5 118 3 3 -2 7 -23 10 -45 6 -45 15 -50 35 -23 72 94 228 128 337
73z m-829 -53 c0 -7 7 -103 15 -213 8 -110 15 -245 15 -300 0 -55 4 -105 8
-111 4 -6 30 -15 59 -19 51 -7 52 -7 58 -47 4 -21 5 -41 3 -44 -6 -5 -298 -34
-345 -34 -33 0 -33 0 -33 49 l0 50 56 11 56 12 -7 181 c-4 100 -10 220 -14
267 l-6 85 -57 9 -58 9 0 48 0 48 53 4 c130 9 197 7 197 -5z m5255 -60 c-3
-13 -7 -41 -8 -62 -2 -33 3 -43 30 -63 62 -47 49 -83 -31 -86 -51 -2 -72 15
-60 47 4 12 0 17 -17 18 -13 1 -33 3 -44 4 -11 1 -32 2 -46 3 -15 1 -37 10
-50 20 -23 19 -24 19 -5 40 13 15 32 21 60 22 31 0 55 10 96 39 65 45 85 50
75 18z m-9180 -144 c8 -4 23 -20 31 -36 8 -16 19 -26 24 -23 5 3 11 1 14 -4 4
-5 24 -12 45 -16 22 -4 45 -13 51 -20 13 -16 4 -75 -11 -75 -5 0 -25 -23 -45
-50 -40 -55 -106 -100 -148 -100 -34 0 -37 10 -28 98 9 82 6 85 -64 53 -67
-31 -98 -34 -115 -14 -30 38 -40 65 -34 95 9 38 31 46 67 25 40 -23 62 -21 77
6 25 46 93 77 136 61z m8132 -499 c19 -6 -7 -63 -31 -69 -12 -3 -36 -6 -55 -6
-18 0 -59 -14 -91 -31 -69 -36 -108 -36 -129 2 -19 34 -7 75 27 93 15 7 58 14
96 15 38 0 72 3 75 6 5 5 82 -2 108 -10z m-7131 -150 c10 -8 34 -15 52 -15 19
0 41 -9 53 -21 19 -19 19 -23 6 -36 -12 -13 -19 -13 -51 1 -27 11 -54 14 -96
9 -41 -4 -64 -2 -75 7 -18 15 -20 41 -3 58 17 17 90 15 114 -3z m5684 -35 c24
-13 44 -74 35 -108 -9 -37 -44 -72 -71 -72 -39 0 -64 37 -64 94 0 75 46 115
100 86z m-651 -47 c28 -23 40 -70 29 -110 -18 -67 -97 -85 -149 -34 -42 43
-37 112 10 148 24 18 86 16 110 -4z m-458 -32 c38 -38 40 -97 6 -137 -18 -21
-32 -27 -65 -27 -68 0 -107 52 -91 122 17 74 96 96 150 42z m-5156 13 c18 -7
45 -66 45 -99 0 -57 -38 -89 -71 -59 -10 9 -19 24 -19 32 0 7 -10 27 -21 44
-19 26 -20 33 -9 53 11 21 24 29 52 34 3 0 14 -2 23 -5z m4886 -23 c38 -38 40
-97 5 -138 -34 -39 -98 -39 -132 0 -34 39 -33 108 1 142 35 36 88 34 126 -4z
m-440 -30 c41 -41 40 -91 -1 -133 -27 -27 -36 -30 -71 -25 -49 6 -75 28 -83
68 -7 36 14 92 41 108 35 20 83 13 114 -18z m-266 -16 c37 -36 35 -97 -5 -137
-27 -27 -36 -30 -73 -25 -54 7 -77 35 -77 94 0 60 32 93 90 93 30 0 47 -6 65
-25z m-466 -20 c34 -17 41 -33 41 -86 0 -56 -34 -89 -91 -89 -60 0 -89 29 -89
88 0 35 6 49 29 73 33 32 67 37 110 14z m2720 -59 c27 -32 -36 -155 -72 -143
-31 10 -13 99 28 141 20 20 29 20 44 2z"/>
<path d="M3278 8983 c7 -3 16 -2 19 1 4 3 -2 6 -13 5 -11 0 -14 -3 -6 -6z"/>
<path d="M3306 7695 c-11 -8 -15 -15 -10 -15 6 0 19 7 30 15 10 8 15 14 9 14
-5 0 -19 -6 -29 -14z"/>
<path d="M3310 7670 c-9 -6 -10 -10 -3 -10 6 0 15 5 18 10 8 12 4 12 -15 0z"/>
<path d="M3230 7610 c-13 -8 -12 -10 3 -10 9 0 17 5 17 10 0 12 -1 12 -20 0z"/>
<path d="M5280 6948 c0 -5 -26 -8 -57 -8 -32 1 -80 1 -108 1 -27 0 -58 2 -69
5 -12 4 -16 2 -12 -5 5 -7 -10 -9 -45 -5 -29 3 -55 7 -59 9 -3 2 -19 -2 -34
-10 -15 -8 -30 -14 -34 -13 -4 1 -14 -1 -22 -4 -8 -3 -42 -11 -75 -17 -33 -7
-80 -16 -105 -21 -86 -17 -110 -22 -117 -22 -5 0 -16 -4 -26 -10 -10 -5 -28
-11 -39 -13 -42 -8 -93 -28 -100 -39 -4 -6 -11 -11 -15 -12 -4 0 -21 -4 -36
-9 -21 -6 -25 -10 -15 -16 11 -7 11 -9 0 -9 -8 0 -30 -17 -51 -37 -36 -36 -81
-54 -81 -33 0 9 -83 5 -99 -4 -4 -3 -29 1 -55 9 -26 8 -78 15 -114 15 -37 0
-82 2 -100 4 -32 3 -94 -10 -160 -34 -18 -7 -39 -10 -47 -6 -8 3 -20 0 -27 -7
-7 -7 -17 -12 -23 -13 -5 0 -23 -6 -39 -12 -16 -7 -38 -10 -49 -6 -12 4 -17 2
-13 -4 3 -6 2 -13 -3 -16 -5 -4 -13 -1 -16 5 -4 5 -13 8 -21 5 -17 -7 -18 5
-1 24 9 11 8 11 -7 0 -11 -8 -27 -15 -37 -15 -10 0 -18 -4 -16 -10 1 -5 11 -9
21 -7 11 1 17 -1 13 -4 -4 -4 0 -12 9 -18 14 -10 13 -14 -4 -30 -17 -14 -23
-15 -40 -5 -17 10 -23 10 -36 0 -12 -10 -16 -10 -16 -2 0 8 -8 10 -21 6 -18
-6 -19 -5 -8 13 7 12 23 25 36 31 13 6 23 15 23 21 0 12 -49 -19 -70 -45 -7
-8 -20 -15 -30 -15 -19 0 -43 -25 -54 -55 -7 -20 -8 -20 -22 -1 -22 30 -38 6
-39 -58 0 -39 3 -52 13 -49 12 5 14 -4 16 -78 1 -26 9 -43 26 -58 14 -11 22
-20 17 -21 -11 0 22 -60 33 -60 6 0 10 -9 10 -20 0 -11 8 -23 18 -27 17 -6 27
-13 70 -53 12 -11 34 -20 48 -20 14 0 35 -5 47 -12 25 -13 197 -19 212 -7 6 4
20 6 30 5 11 -2 32 3 46 10 14 7 35 13 45 13 42 0 74 11 141 45 84 43 93 52
177 160 52 66 66 91 66 118 0 41 38 118 65 132 11 6 27 19 37 29 10 11 22 16
29 11 8 -4 9 -3 5 4 -12 20 95 15 126 -6 32 -21 68 -65 68 -84 0 -21 65 -86
107 -107 21 -11 55 -23 76 -26 20 -4 37 -10 37 -14 0 -4 39 -6 88 -4 88 3 111
5 192 17 25 3 76 8 113 11 91 7 256 76 277 116 6 11 24 19 48 21 35 3 37 5 34
34 -2 19 3 38 14 48 9 9 18 31 19 49 2 24 10 37 34 50 35 21 40 37 12 37 -27
0 -32 10 -37 88 -3 37 -6 73 -6 81 -1 8 -17 28 -36 45 -31 27 -43 31 -94 32
-32 0 -58 -4 -58 -8z"/>
<path d="M3235 6589 c-4 -6 -5 -12 -2 -15 2 -3 7 2 10 11 7 17 1 20 -8 4z"/>
<path d="M5310 4824 c0 -8 5 -12 10 -9 6 4 8 11 5 16 -9 14 -15 11 -15 -7z"/>
<path d="M4466 4698 c3 -5 10 -6 15 -3 13 9 11 12 -6 12 -8 0 -12 -4 -9 -9z"/>
<path d="M1705 6820 c-3 -5 -4 -14 0 -20 8 -13 35 -1 35 16 0 16 -26 19 -35 4z"/>
<path d="M9347 6861 c-16 -6 -15 -10 12 -36 17 -17 31 -36 31 -42 0 -7 5 -13
10 -13 13 0 13 4 -1 51 -13 41 -24 50 -52 40z"/>
<path d="M6013 1270 c-103 -24 -147 -135 -123 -308 12 -93 28 -136 65 -180 73
-87 237 -76 295 20 11 18 17 41 15 53 -2 11 -12 90 -21 175 l-17 155 -37 35
c-20 20 -55 41 -77 48 -45 13 -53 13 -100 2z"/>
<path d="M3233 1333 l-43 -4 0 -156 0 -155 78 6 c138 12 169 17 201 37 48 29
71 75 71 142 0 51 -4 61 -34 95 l-34 37 -99 1 c-54 1 -117 -1 -140 -3z"/>
<path d="M3287 910 c-62 -4 -91 -10 -97 -20 -6 -8 -10 -90 -10 -183 l0 -167
73 5 c172 13 194 17 231 38 60 34 79 67 84 143 5 76 -17 146 -53 170 -26 17
-104 22 -228 14z"/>
<path d="M7210 1292 c-30 -31 -50 -86 -50 -141 l0 -33 128 7 c70 4 130 10 134
13 11 11 -38 122 -68 153 -39 41 -104 41 -144 1z"/>
<path d="M1656 9974 c-4 -14 -2 -41 4 -59 9 -28 17 -34 59 -42 26 -5 56 -6 67
-2 10 4 51 8 90 8 l71 1 6 43 c3 24 9 51 13 60 6 16 -7 17 -149 17 l-155 0 -6
-26z"/>
<path d="M2106 9984 c-11 -28 -6 -54 18 -102 36 -69 64 -96 126 -120 77 -29
253 -72 299 -72 21 0 76 -7 121 -16 l83 -15 27 30 c16 17 36 54 45 83 10 29
22 58 26 64 5 6 6 45 3 88 l-7 76 -367 0 c-326 0 -369 -2 -374 -16z"/>
<path d="M4545 9860 c3 -5 14 -10 23 -10 15 0 15 2 2 10 -20 13 -33 13 -25 0z"/>
<path d="M2865 9791 c-3 -5 -1 -12 5 -16 5 -3 10 1 10 9 0 18 -6 21 -15 7z"/>
<path d="M9524 779 c-10 -17 13 -36 27 -22 12 12 4 33 -11 33 -5 0 -12 -5 -16
-11z"/>
<path d="M9988 195 c-3 -3 -31 -10 -63 -15 -63 -10 -70 -16 -80 -68 -4 -19
-13 -41 -21 -49 -12 -12 -20 -51 -11 -54 1 0 44 -3 95 -6 l92 -5 0 101 c0 99
-1 107 -12 96z"/>
</g>
</svg>
