<?xml version="1.0" encoding="utf-8"?>
<!-- Generator: Adobe Illustrator 22.0.1, SVG Export Plug-In . SVG Version: 6.00 Build 0)  -->
<svg version="1.1" id="Layer_1" xmlns="http://www.w3.org/2000/svg" xmlns:xlink="http://www.w3.org/1999/xlink" x="0px" y="0px"
	 viewBox="0 0 1054 1054" style="enable-background:new 0 0 1054 1054;" xml:space="preserve">
<style type="text/css">
	.st0{fill:#FFA500;}
</style>
<path class="st0" d="M0,0v1054h1054V0H0z M571.5,961H246.7V485h315v86.1h-217v151.2h191.1v84H344.7v68.6h226.8V961z M801.8,967.3
	c-91,0-149.8-43.4-178.5-100.1l79.8-46.2c21,34.3,48.3,59.5,96.6,59.5c40.6,0,66.5-20.3,66.5-48.3c0-33.6-26.6-45.5-71.4-65.1
	l-24.5-10.5c-70.7-30.1-117.6-67.9-117.6-147.7c0-73.5,56-129.5,143.5-129.5c62.3,0,107.1,21.7,139.3,78.4l-76.3,49
	c-16.8-30.1-35-42-63-42c-28.7,0-46.9,18.2-46.9,42c0,29.4,18.2,41.3,60.2,59.5l24.5,10.5c83.3,35.7,130.2,72.1,130.2,154
	C964.2,919,894.9,967.3,801.8,967.3z"/>
</svg>
